<svg aria-hidden="true" style="position: absolute; width: 0; height: 0; overflow: hidden;" version="1.1" xmlns="http://www.w3.org/2000/svg" xmlns:xlink="http://www.w3.org/1999/xlink">
<defs>
<symbol id="icon-answer_all" viewBox="0 0 32 32">
<path fill="#9eb3b3" style="fill: var(--color1, #9eb3b3)" d="M26.027 4h-25.36c-0.368 0-0.667 0.299-0.667 0.667v0 22.666c0 0.369 0.298 0.667 0.667 0.667h30.6c0.368-0.001 0.666-0.299 0.666-0.667 0 0 0 0 0 0v0-17.158l-5.906-6.175z"></path>
<path fill="#dfdfdf" style="fill: var(--color2, #dfdfdf)" d="M31 28h-30v0.333c0 0.369 0.298 0.667 0.667 0.667h28.666c0.368 0 0.667-0.299 0.667-0.667v0-0.333z"></path>
<path fill="#f0f4f4" style="fill: var(--color3, #f0f4f4)" d="M25.8 6h-23.8v19.933h27.933v-15.833l-4.133-4.1z"></path>
<path fill="#aab9b9" style="fill: var(--color4, #aab9b9)" d="M4 13c0 0.552 0.448 1 1 1s1-0.448 1-1v0c0-0.552-0.448-1-1-1s-1 0.448-1 1v0zM14 13c0 0.552 0.448 1 1 1s1-0.448 1-1v0c0-0.552-0.448-1-1-1s-1 0.448-1 1v0zM4 17c0 0.552 0.448 1 1 1s1-0.448 1-1v0c0-0.552-0.448-1-1-1s-1 0.448-1 1v0zM14 21c0 0.552 0.448 1 1 1s1-0.448 1-1v0c0-0.552-0.448-1-1-1s-1 0.448-1 1v0zM11 20h-6c-0.552 0-1 0.448-1 1s0.448 1 1 1v0h6c0.552 0 1-0.448 1-1s-0.448-1-1-1v0zM27 16h-1c-0.552 0-1 0.448-1 1s0.448 1 1 1v0h1c0.552 0 1-0.448 1-1s-0.448-1-1-1v0zM13 16h-4c-0.552 0-1 0.448-1 1s0.448 1 1 1v0h4c0.552 0 1-0.448 1-1s-0.448-1-1-1v0zM21 16h-4c-0.552 0-1 0.448-1 1s0.448 1 1 1v0h4c0.552 0 1-0.448 1-1s-0.448-1-1-1v0zM11 12h-2c-0.552 0-1 0.448-1 1s0.448 1 1 1v0h2c0.552 0 1-0.448 1-1s-0.448-1-1-1v0z"></path>
<path fill="#91a4a4" style="fill: var(--color5, #91a4a4)" d="M30 12h-6v-6h2.011v3.989h3.989v2.011z"></path>
</symbol>
<symbol id="icon-answer_all_close" viewBox="0 0 32 32">
<path fill="#9eb3b3" style="fill: var(--color1, #9eb3b3)" d="M26.027 4h-25.36c-0.368 0-0.667 0.299-0.667 0.667v0 22.666c0 0.369 0.298 0.667 0.667 0.667h30.6c0.368-0.001 0.666-0.299 0.666-0.667 0 0 0 0 0 0v0-17.158l-5.906-6.175z"></path>
<path fill="#dfdfdf" style="fill: var(--color2, #dfdfdf)" d="M31 28h-30v0.333c0 0.369 0.298 0.667 0.667 0.667h28.666c0.368 0 0.667-0.299 0.667-0.667v0-0.333z"></path>
<path fill="#f0f4f4" style="fill: var(--color3, #f0f4f4)" d="M25.8 6h-23.8v19.933h27.933v-15.833l-4.133-4.1z"></path>
<path fill="#aab9b9" style="fill: var(--color4, #aab9b9)" d="M4 13c0 0.552 0.448 1 1 1s1-0.448 1-1v0c0-0.552-0.448-1-1-1s-1 0.448-1 1v0zM14 13c0 0.552 0.448 1 1 1s1-0.448 1-1v0c0-0.552-0.448-1-1-1s-1 0.448-1 1v0zM4 17c0 0.552 0.448 1 1 1s1-0.448 1-1v0c0-0.552-0.448-1-1-1s-1 0.448-1 1v0zM14 21c0 0.552 0.448 1 1 1s1-0.448 1-1v0c0-0.552-0.448-1-1-1s-1 0.448-1 1v0zM11 20h-6c-0.552 0-1 0.448-1 1s0.448 1 1 1v0h6c0.552 0 1-0.448 1-1s-0.448-1-1-1v0zM27 16h-1c-0.552 0-1 0.448-1 1s0.448 1 1 1v0h1c0.552 0 1-0.448 1-1s-0.448-1-1-1v0zM13 16h-4c-0.552 0-1 0.448-1 1s0.448 1 1 1v0h4c0.552 0 1-0.448 1-1s-0.448-1-1-1v0zM21 16h-4c-0.552 0-1 0.448-1 1s0.448 1 1 1v0h4c0.552 0 1-0.448 1-1s-0.448-1-1-1v0zM11 12h-2c-0.552 0-1 0.448-1 1s0.448 1 1 1v0h2c0.552 0 1-0.448 1-1s-0.448-1-1-1v0z"></path>
<path fill="#91a4a4" style="fill: var(--color5, #91a4a4)" d="M30 12h-6v-6h2.011v3.989h3.989v2.011z"></path>
<path fill="#b93333" style="fill: var(--color6, #b93333)" d="M19.107 19.793v0c-0.181 0.181-0.293 0.431-0.293 0.707s0.112 0.526 0.293 0.707l2.692 2.693-2.692 2.692c-0.181 0.181-0.293 0.431-0.293 0.707s0.112 0.526 0.293 0.707l1.686 1.686c0.181 0.181 0.431 0.293 0.707 0.293s0.526-0.112 0.707-0.293l2.693-2.692 2.692 2.692c0.181 0.181 0.431 0.293 0.707 0.293s0.526-0.112 0.707-0.293l1.758-1.757c0.181-0.181 0.293-0.431 0.293-0.707s-0.112-0.526-0.293-0.707l-2.692-2.693 2.62-2.621c0.181-0.181 0.293-0.431 0.293-0.707s-0.112-0.526-0.293-0.707l-1.686-1.686c-0.181-0.181-0.431-0.293-0.707-0.293s-0.526 0.112-0.707 0.293l-2.693 2.692-2.692-2.692c-0.181-0.181-0.431-0.293-0.707-0.293s-0.526 0.112-0.707 0.293l-1.686 1.686zM20.657 21.071l1.414-1.414 2.828 2.828 2.829-2.828 1.414 1.414-2.828 2.828 2.828 2.829-1.414 1.414-2.829-2.828-2.828 2.828-1.414-1.414 2.828-2.829-2.828-2.828z"></path>
<path fill="#f75e5e" style="fill: var(--color7, #f75e5e)" d="M21.668 19.1l-1.6 1.6 3.2 3.2-3.2 3.2 1.6 1.6 3.2-3.2 3.2 3.2 1.6-1.6-3.2-3.2 3.2-3.2-1.6-1.6-3.2 3.2-3.2-3.2z"></path>
</symbol>
<symbol id="icon-answer_del" viewBox="0 0 32 32">
<path fill="#b93333" style="fill: var(--color6, #b93333)" d="M10.208 11.893v0c-0.181 0.181-0.293 0.431-0.293 0.707s0.112 0.527 0.293 0.707l2.692 2.692-2.693 2.692c-0.181 0.181-0.293 0.431-0.293 0.707s0.112 0.526 0.293 0.707l1.686 1.686c0.181 0.181 0.431 0.293 0.707 0.293s0.526-0.112 0.707-0.293l2.693-2.693 2.692 2.693c0.181 0.181 0.431 0.293 0.707 0.293s0.526-0.112 0.707-0.293l1.757-1.757c0.181-0.181 0.293-0.431 0.293-0.707s-0.112-0.526-0.293-0.707l-2.692-2.692 2.621-2.622c0.181-0.181 0.293-0.431 0.293-0.707s-0.112-0.526-0.293-0.707l-1.686-1.686c-0.181-0.181-0.431-0.293-0.707-0.293s-0.526 0.112-0.707 0.293l-2.692 2.693-2.693-2.693c-0.181-0.181-0.431-0.293-0.707-0.293s-0.526 0.112-0.707 0.293l-1.686 1.686zM11.757 13.171l1.415-1.414 2.828 2.829 2.828-2.829 1.415 1.415-2.829 2.828 2.829 2.828-1.415 1.415-2.828-2.829-2.828 2.829-1.415-1.415 2.829-2.828-2.829-2.829z"></path>
<path fill="#f75e5e" style="fill: var(--color7, #f75e5e)" d="M12.769 11.2l-1.6 1.6 3.2 3.2-3.2 3.2 1.6 1.6 3.2-3.2 3.2 3.2 1.6-1.6-3.2-3.2 3.2-3.2-1.6-1.6-3.2 3.2-3.2-3.2z"></path>
</symbol>

<symbol id="icon-answer_new" viewBox="0 0 32 32">
<path fill="#9eb3b3" style="fill: var(--color1, #9eb3b3)" d="M26.027 4h-25.36c-0.368 0-0.667 0.299-0.667 0.667v0 22.666c0 0.369 0.298 0.667 0.667 0.667h30.6c0.368-0.001 0.666-0.299 0.666-0.667 0 0 0 0 0 0v0-17.158l-5.906-6.175z"></path>
<path fill="#dfdfdf" style="fill: var(--color2, #dfdfdf)" d="M31 28h-30v0.333c0 0.369 0.298 0.667 0.667 0.667h28.666c0.368 0 0.667-0.299 0.667-0.667v0-0.333z"></path>
<path fill="#f0f4f4" style="fill: var(--color3, #f0f4f4)" d="M25.8 6h-23.8v19.933h27.933v-15.833l-4.133-4.1z"></path>
<path fill="#aab9b9" style="fill: var(--color4, #aab9b9)" d="M4 13c0 0.552 0.448 1 1 1s1-0.448 1-1v0c0-0.552-0.448-1-1-1s-1 0.448-1 1v0zM14 13c0 0.552 0.448 1 1 1s1-0.448 1-1v0c0-0.552-0.448-1-1-1s-1 0.448-1 1v0zM4 17c0 0.552 0.448 1 1 1s1-0.448 1-1v0c0-0.552-0.448-1-1-1s-1 0.448-1 1v0zM14 21c0 0.552 0.448 1 1 1s1-0.448 1-1v0c0-0.552-0.448-1-1-1s-1 0.448-1 1v0zM11 20h-6c-0.552 0-1 0.448-1 1s0.448 1 1 1v0h6c0.552 0 1-0.448 1-1s-0.448-1-1-1v0zM27 16h-1c-0.552 0-1 0.448-1 1s0.448 1 1 1v0h1c0.552 0 1-0.448 1-1s-0.448-1-1-1v0zM13 16h-4c-0.552 0-1 0.448-1 1s0.448 1 1 1v0h4c0.552 0 1-0.448 1-1s-0.448-1-1-1v0zM21 16h-4c-0.552 0-1 0.448-1 1s0.448 1 1 1v0h4c0.552 0 1-0.448 1-1s-0.448-1-1-1v0zM11 12h-2c-0.552 0-1 0.448-1 1s0.448 1 1 1v0h2c0.552 0 1-0.448 1-1s-0.448-1-1-1v0z"></path>
<path fill="#91a4a4" style="fill: var(--color5, #91a4a4)" d="M30 12h-6v-6h2.011v3.989h3.989v2.011z"></path>
<path fill="#e03333" style="fill: var(--color8, #e03333)" d="M29.533 6.533l-4.133-4 1.728-1.596c0.237-0.22 0.555-0.354 0.905-0.354s0.668 0.135 0.906 0.355l-0.001-0.001 2.122 1.963c0.538 0.498 0.574 1.337 0.079 1.878l-1.606 1.755z"></path>
<path fill="#ae9e46" style="fill: var(--color9, #ae9e46)" d="M15 13.2l9.533-9.733 1.067 0.966-8.913 8.82c-0.183 0.181-0.297 0.433-0.297 0.711s0.114 0.531 0.299 0.713l0 0 0.641 0.631c0.18 0.178 0.428 0.287 0.701 0.287 0.274 0 0.523-0.111 0.704-0.289l8.898-8.806 1 0.833-9.666 9.434-1.134 0.233-1.866-0.8-1.2-1.4 0.233-1.6z"></path>
<path fill="#ffd678" style="fill: var(--color10, #ffd678)" d="M27.767 6.667l-2.3-2.367-9.734 9.567 2.334 2.233 9.7-9.433z"></path>
<path fill="#acabab" style="fill: var(--color11, #acabab)" d="M29.533 6.507l-4.1-3.974-0.966 0.96 4 4.040 1.066-1.026z"></path>
<path fill="#000" style="fill: var(--color12, #000)" d="M17.9 17l-3.9 0.933 0.867-3.733 1.633 1.17c0.088 0.065 0.169 0.14 0.238 0.224l1.162 1.406z"></path>
<path fill="#e7e6e6" style="fill: var(--color13, #e7e6e6)" d="M25.033 4l0.9-0.967 3.067 3-1 0.934-2.967-2.967zM15.733 13.833l0.7-0.766 2.39 2.233-0.758 0.767-2.332-2.234z"></path>
</symbol>
<symbol id="icon-answer_new_close" viewBox="0 0 33 32">
<path fill="#9eb3b3" style="fill: var(--color1, #9eb3b3)" d="M24.496 3.765h-23.868c-0.347 0-0.628 0.281-0.628 0.628v0 21.333c0 0.347 0.28 0.628 0.628 0.628h28.8c0.346-0.001 0.627-0.281 0.627-0.628 0 0 0 0 0 0v0-16.149l-5.559-5.812z"></path>
<path fill="#dfdfdf" style="fill: var(--color2, #dfdfdf)" d="M29.176 26.353h-28.235v0.313c0 0.347 0.28 0.628 0.628 0.628h26.98c0.347 0 0.628-0.281 0.628-0.628v0-0.313z"></path>
<path fill="#f0f4f4" style="fill: var(--color3, #f0f4f4)" d="M24.282 5.647h-22.4v18.76h26.29v-14.902l-3.89-3.859z"></path>
<path fill="#aab9b9" style="fill: var(--color4, #aab9b9)" d="M3.765 12.235c0 0.52 0.421 0.941 0.941 0.941s0.941-0.421 0.941-0.941v0c0-0.52-0.421-0.941-0.941-0.941s-0.941 0.421-0.941 0.941v0zM13.176 12.235c0 0.52 0.421 0.941 0.941 0.941s0.941-0.421 0.941-0.941v0c0-0.52-0.421-0.941-0.941-0.941s-0.941 0.421-0.941 0.941v0zM3.765 16c0 0.52 0.421 0.941 0.941 0.941s0.941-0.421 0.941-0.941v0c0-0.52-0.421-0.941-0.941-0.941s-0.941 0.421-0.941 0.941v0zM13.176 19.765c0 0.52 0.421 0.941 0.941 0.941s0.941-0.421 0.941-0.941v0c0-0.52-0.421-0.941-0.941-0.941s-0.941 0.421-0.941 0.941v0zM10.353 18.824h-5.647c-0.52 0-0.941 0.421-0.941 0.941s0.421 0.941 0.941 0.941v0h5.647c0.52 0 0.941-0.421 0.941-0.941s-0.421-0.941-0.941-0.941v0zM25.412 15.059h-0.941c-0.52 0-0.941 0.421-0.941 0.941s0.421 0.941 0.941 0.941v0h0.941c0.52 0 0.941-0.421 0.941-0.941s-0.421-0.941-0.941-0.941v0zM12.235 15.059h-3.765c-0.52 0-0.941 0.421-0.941 0.941s0.421 0.941 0.941 0.941v0h3.765c0.52 0 0.941-0.421 0.941-0.941s-0.421-0.941-0.941-0.941v0zM19.765 15.059h-3.765c-0.52 0-0.941 0.421-0.941 0.941s0.421 0.941 0.941 0.941v0h3.765c0.52 0 0.941-0.421 0.941-0.941s-0.421-0.941-0.941-0.941v0zM10.353 11.294h-1.882c-0.52 0-0.941 0.421-0.941 0.941s0.421 0.941 0.941 0.941v0h1.882c0.52 0 0.941-0.421 0.941-0.941s-0.421-0.941-0.941-0.941v0z"></path>
<path fill="#91a4a4" style="fill: var(--color5, #91a4a4)" d="M28.235 11.294h-5.647v-5.647h1.893v3.754h3.754v1.893z"></path>
<path fill="#e03333" style="fill: var(--color8, #e03333)" d="M27.796 6.149l-3.89-3.765 1.626-1.502c0.223-0.207 0.523-0.333 0.852-0.333s0.629 0.127 0.853 0.334l-0.001-0.001 1.997 1.848c0.507 0.469 0.54 1.258 0.074 1.768l-1.512 1.652z"></path>
<path fill="#ae9e46" style="fill: var(--color9, #ae9e46)" d="M14.118 12.424l8.972-9.16 1.004 0.909-8.389 8.301c-0.173 0.171-0.279 0.407-0.279 0.669s0.108 0.5 0.281 0.671l0 0 0.603 0.594c0.17 0.167 0.403 0.27 0.66 0.27s0.492-0.104 0.662-0.272l8.374-8.288 0.941 0.784-9.097 8.879-1.067 0.219-1.756-0.753-1.129-1.318 0.219-1.506z"></path>
<path fill="#ffd678" style="fill: var(--color10, #ffd678)" d="M26.134 6.275l-2.165-2.228-9.161 9.004 2.197 2.102 9.129-8.878z"></path>
<path fill="#acabab" style="fill: var(--color11, #acabab)" d="M27.796 6.124l-3.859-3.74-0.909 0.904 3.765 3.802 1.003-0.966z"></path>
<path fill="#000" style="fill: var(--color12, #000)" d="M16.847 16l-3.671 0.878 0.816-3.513 1.537 1.101c0.083 0.061 0.159 0.132 0.224 0.211l1.094 1.323z"></path>
<path fill="#e7e6e6" style="fill: var(--color13, #e7e6e6)" d="M23.56 3.765l0.847-0.91 2.887 2.824-0.941 0.879-2.792-2.792zM14.808 13.019l0.659-0.721 2.249 2.102-0.713 0.722-2.195-2.103z"></path>
<path fill="#b93333" style="fill: var(--color6, #b93333)" d="M17.983 18.629v0c-0.17 0.17-0.276 0.406-0.276 0.665s0.105 0.495 0.276 0.665l2.534 2.535-2.534 2.534c-0.17 0.17-0.276 0.406-0.276 0.665s0.105 0.495 0.276 0.665l1.587 1.587c0.17 0.17 0.406 0.276 0.665 0.276s0.495-0.105 0.665-0.276l2.535-2.534 2.534 2.534c0.17 0.17 0.406 0.276 0.665 0.276s0.495-0.105 0.665-0.276l1.655-1.654c0.17-0.17 0.276-0.406 0.276-0.665s-0.105-0.495-0.276-0.665l-2.534-2.535 2.466-2.467c0.17-0.17 0.276-0.406 0.276-0.665s-0.105-0.495-0.276-0.665l-1.587-1.587c-0.17-0.17-0.406-0.276-0.665-0.276s-0.495 0.105-0.665 0.276l-2.535 2.534-2.534-2.534c-0.17-0.17-0.406-0.276-0.665-0.276s-0.495 0.105-0.665 0.276l-1.587 1.587zM19.442 19.832l1.331-1.331 2.662 2.662 2.663-2.662 1.331 1.331-2.662 2.662 2.662 2.663-1.331 1.331-2.663-2.662-2.662 2.662-1.331-1.331 2.662-2.663-2.662-2.662z"></path>
<path fill="#f75e5e" style="fill: var(--color7, #f75e5e)" d="M20.393 17.976l-1.506 1.506 3.012 3.012-3.012 3.012 1.506 1.506 3.012-3.012 3.012 3.012 1.506-1.506-3.012-3.012 3.012-3.012-1.506-1.506-3.012 3.012-3.012-3.012z"></path>
</symbol>

<symbol id="icon-blog_del" viewBox="0 0 32 32">
<path fill="#e03333" style="fill: var(--color8, #e03333)" d="M9 16c0 3.866 3.134 7 7 7s7-3.134 7-7v0c0-3.866-3.134-7-7-7s-7 3.134-7 7v0z"></path>
<path fill="#fff" style="fill: var(--color14, #fff)" d="M13.172 11.757l-1.415 1.415 2.829 2.828-2.829 2.828 1.415 1.415 2.828-2.829 2.828 2.829 1.415-1.415-2.829-2.828 2.829-2.828-1.415-1.415-2.828 2.829-2.828-2.829z"></path>
</symbol>
<symbol id="icon-blog_edit" viewBox="0 0 32 32">
<path fill="#45b500" style="fill: var(--color15, #45b500)" d="M9 16c0 3.866 3.134 7 7 7s7-3.134 7-7v0c0-3.866-3.134-7-7-7s-7 3.134-7 7v0z"></path>
<path fill="#fff" style="fill: var(--color14, #fff)" d="M16.023 20.334l4.384-6.264c0.151-0.217 0.242-0.486 0.242-0.777 0-0.756-0.613-1.368-1.368-1.368-0.465 0-0.876 0.232-1.124 0.587l-0.003 0.004-3.503 5.15-1.094-2.91c-0.176-0.468-0.62-0.794-1.14-0.794-0.671 0-1.215 0.544-1.215 1.215 0 0.186 0.042 0.362 0.116 0.519l-0.003-0.007 2.012 4.4c0.252 0.542 0.792 0.911 1.418 0.911 0.526 0 0.992-0.261 1.274-0.66l0.003-0.005z"></path>
</symbol>
<symbol id="icon-com_s" viewBox="0 0 32 32">
<path fill="#99705c" style="fill: var(--color14, #99705c)" d="M15.16 18.2c0.803-1.305 0.696-0.414 1.339-2.7 0.705-2.52-1.902-6.921-4.464-6.921s-5.196 4.41-4.464 6.921c0.643 2.214 0.572 1.629 1.34 2.7-0.054 0.333-0.447 2.25-0.447 2.25l0.777 0.351c0.875 0.372 1.817 0.56 2.767 0.549 0.010 0 0.022 0 0.034 0 1.001 0 1.957-0.198 2.828-0.558l-0.049 0.018 0.785-0.36s-0.393-1.818-0.446-2.25z"></path>
<path fill="#7b4a1c" style="fill: var(--color15, #7b4a1c)" d="M17.392 12.8c0.007-0.103 0.012-0.222 0.012-0.343 0-1.398-0.562-2.664-1.472-3.586l0.001 0.001c-0.494-0.498-1.091-0.892-1.756-1.149l-0.034-0.012c-0.524-0.204-1.131-0.323-1.765-0.323-0.12 0-0.239 0.004-0.358 0.013l0.016-0.001c-0.099-0.007-0.215-0.011-0.332-0.011-0.637 0-1.247 0.119-1.807 0.337l0.034-0.012c-0.699 0.27-1.295 0.664-1.788 1.162l-0 0c-0.494 0.498-0.886 1.099-1.14 1.767l-0.012 0.035c-0.204 0.531-0.323 1.146-0.323 1.788 0 0.117 0.004 0.234 0.012 0.349l-0.001-0.016c0.178 1.227 0.478 2.433 0.893 3.6 1.875 0.405 2.91 1.8 4.464 1.8 1.553 0 2.143-1.332 4.464-1.8 0.46-1.153 0.76-2.364 0.893-3.6z"></path>
<path fill="#458ede" style="fill: var(--color16, #458ede)" d="M4 25.4v-2.7c0-2.7 8.035-4.5 8.035-4.5s8.035 1.8 8.035 4.5v2.7c0 3.6-2.678 3.6-8.035 3.6s-8.035 0-8.035-3.6z"></path>
<path fill="#9ec3e9" style="fill: var(--color17, #9ec3e9)" d="M12.035 28.1c-4.607 0-7.142 0-7.142-2.7v-2.7c0-1.8 7.142-3.6 7.142-3.6s7.142 1.8 7.142 3.6v2.7c0 2.7-2.535 2.7-7.142 2.7z"></path>
<path fill="#66a5e2" style="fill: var(--color18, #66a5e2)" d="M5.786 25.4v-1.8c0-0.9 0.892-1.8 6.249-3.6 5.357 1.8 6.25 2.7 6.25 3.6v1.8c0 1.8-1.786 1.8-6.25 1.8s-6.25 0-6.25-1.8z"></path>
<path fill="#fff" style="fill: var(--color19, #fff)" d="M15.606 20.9l-3.571 4.5-3.571-4.5v-0.9h7.142v0.9z"></path>
<path fill="#d9bd85" style="fill: var(--color20, #d9bd85)" d="M14.713 20.9c-0.775 0.424-1.697 0.674-2.678 0.674s-1.903-0.249-2.708-0.688l0.030 0.015c0.137-0.676 0.215-1.454 0.215-2.25s-0.078-1.574-0.228-2.326l0.013 0.076h5.356c-0.133 0.677-0.208 1.454-0.208 2.25s0.076 1.573 0.221 2.327l-0.012-0.077z"></path>
<path fill="#e2e2e2" opacity="0.5" style="fill: var(--color21, #e2e2e2)" d="M9.428 16.913c0.053 0.47 0.080 0.94 0.080 1.413 0.786 1.674 2.973 2.277 4.804 2.061 0.098 0 0.312 0.513 0.401 0.513-0.115-0.599-0.181-1.289-0.181-1.994s0.066-1.394 0.192-2.062l-0.011 0.069h-5.285z"></path>
<path fill="#ffe09c" style="fill: var(--color22, #ffe09c)" d="M15.83 13.466c0 3.123-0.893 5.634-3.786 5.634s-3.777-2.7-3.777-5.634c-0.001-0.025-0.001-0.055-0.001-0.084 0-1.043 0.407-1.992 1.072-2.695l-0.002 0.002c0.681-0.721 1.634-1.179 2.693-1.21l0.006-0c1.071 0.022 2.031 0.479 2.714 1.199l0.002 0.002c0.668 0.7 1.079 1.651 1.079 2.697 0 0.031-0 0.063-0.001 0.094l0-0.005z"></path>
<path fill="#735343" style="fill: var(--color23, #735343)" d="M12.035 8.3c2.973 0 4.464 1.917 4.464 4.554 0.004 0.078 0.006 0.169 0.006 0.261 0 1.25-0.393 2.408-1.063 3.357l0.012-0.018c0.116-0.324 0.607-3.114-0.99-3.6-1.599-0.486-2.991 1.935-5.938 1.062-0.048 0.292-0.075 0.629-0.075 0.972 0 0.537 0.067 1.058 0.192 1.556l-0.009-0.044c-0.625-0.985-1.014-2.175-1.063-3.452l-0-0.013c0.143-2.637 1.491-4.635 4.464-4.635z"></path>
<path fill="#9d714a" opacity="0.3" style="fill: var(--color24, #9d714a)" d="M7.866 12.953v0.054c0.034 0.54 0.13 1.075 0.285 1.593 0.004-0.287 0.031-0.573 0.080-0.855l0.063-0.333 0.313 0.090c0.362 0.107 0.778 0.168 1.208 0.168 0.91 0 1.756-0.274 2.459-0.745l-0.016 0.010c1.705-0.9 2.884-3.78 1.054-4.212-0.324-0.071-0.695-0.112-1.076-0.112-0.071 0-0.141 0.001-0.211 0.004l0.010-0c-3.42 0-4.080 2.718-4.17 4.338z"></path>
<path fill="#71afe5" style="fill: var(--color25, #71afe5)" d="M15.606 17.3h-0.893c0.632-1.14 1.004-2.499 1.004-3.946 0-0.839-0.125-1.65-0.358-2.413l0.015 0.059h6.553c-1.527 1.044-2.75 4.5-6.32 6.3z"></path>
<path fill="#71afe5" style="fill: var(--color25, #71afe5)" d="M28.998 9.461c0.001 0.045 0.002 0.097 0.002 0.15 0 1.321-0.511 2.523-1.345 3.419l0.003-0.003c-0.866 0.93-2.082 1.524-3.436 1.573l-0.009 0h-7.393c-1.363-0.049-2.579-0.643-3.442-1.57l-0.003-0.003c-0.832-0.893-1.342-2.095-1.342-3.416 0-0.053 0.001-0.105 0.002-0.158l-0 0.008v-2.322c-0.001-0.044-0.002-0.097-0.002-0.149 0-1.321 0.511-2.523 1.345-3.419l-0.003 0.003c0.866-0.93 2.082-1.525 3.436-1.574l0.009-0h7.393c1.31 0.045 2.548 0.61 3.445 1.574 0.832 0.893 1.342 2.095 1.342 3.416 0 0.052-0.001 0.105-0.002 0.157l0-0.008v2.322z"></path>
<path fill="#e5f1f3" style="fill: var(--color26, #e5f1f3)" d="M15.606 16.4c1.786-2.7 0.509-4.302 0.491-6.3l5.848 0.054c-2.491 1.593-3.66 5.346-6.339 6.246z"></path>
<path fill="#c7e1e8" style="fill: var(--color27, #c7e1e8)" d="M28.105 9.434c0.001 0.032 0.001 0.069 0.001 0.106 0 1.11-0.431 2.118-1.135 2.868l0.002-0.002c-0.728 0.771-1.746 1.261-2.879 1.294l-0.006 0h-7.143c-1.139-0.034-2.156-0.524-2.881-1.294l-0.002-0.002c-0.703-0.747-1.135-1.756-1.135-2.866 0-0.036 0-0.073 0.001-0.109l-0 0.005v-2.268c-0.001-0.031-0.001-0.067-0.001-0.104 0-1.11 0.432-2.119 1.137-2.868l-0.002 0.002c0.727-0.772 1.744-1.262 2.877-1.296l0.006-0h7.143c1.14 0.030 2.159 0.521 2.883 1.292l0.002 0.002c0.702 0.744 1.134 1.749 1.134 2.856 0 0.041-0.001 0.082-0.002 0.122l0-0.006v2.268z"></path>
<path fill="#fff" opacity="0.6" style="fill: var(--color19, #fff)" d="M24.088 2.9h-7.143c-1.139 0.034-2.156 0.524-2.881 1.294l-0.002 0.002c-0.703 0.747-1.135 1.756-1.135 2.866 0 0.036 0 0.073 0.001 0.109l-0-0.005v2.268c-0.001 0.031-0.001 0.067-0.001 0.104 0 1.11 0.432 2.119 1.137 2.868l-0.002-0.002c0.753 0.8 1.79 1.265 2.883 1.296h7.143c1.14-0.030 2.159-0.521 2.883-1.292l0.002-0.002c0.702-0.744 1.134-1.75 1.134-2.856 0-0.041-0.001-0.081-0.002-0.122l0 0.006v-2.268c0.001-0.032 0.001-0.069 0.001-0.106 0-1.11-0.431-2.118-1.135-2.868l0.002 0.002c-0.728-0.771-1.746-1.261-2.879-1.294l-0.006-0zM27.275 9.434c0.001 0.022 0.001 0.048 0.001 0.074 0 0.881-0.344 1.681-0.905 2.274l0.001-0.002c-0.576 0.609-1.383 0.995-2.28 1.019l-0.004 0h-7.143c-0.901-0.024-1.708-0.41-2.283-1.017l-0.001-0.002c-0.56-0.591-0.904-1.392-0.904-2.273 0-0.026 0-0.052 0.001-0.078l-0 0.004v-2.268c-0.001-0.022-0.001-0.048-0.001-0.074 0-0.881 0.344-1.681 0.905-2.274l-0.001 0.002c0.576-0.609 1.383-0.995 2.28-1.019l0.004-0h7.143c0.901 0.024 1.708 0.41 2.283 1.018l0.001 0.002c0.56 0.592 0.904 1.392 0.904 2.273 0 0.026-0 0.052-0.001 0.078l0-0.004v2.268z"></path>
</symbol>
<symbol id="icon-com_u" viewBox="0 0 32 32">
<path fill="#99705c" style="fill: var(--color14, #99705c)" d="M19.61 15.554c0.952-1.513 0.809-0.473 1.552-3.138 0.81-2.925-2.2-8.051-5.143-8.051s-6.019 5.135-5.18 8.050c0.742 2.582 0.666 1.858 1.551 3.14-0.057 0.39-0.523 2.618-0.523 2.618l0.904 0.408c0.923 0.405 1.998 0.641 3.129 0.641 0.025 0 0.050-0 0.075-0l-0.004 0c0.008 0 0.018 0 0.029 0 1.161 0 2.267-0.232 3.276-0.652l-0.056 0.021 0.905-0.418s-0.448-2.117-0.514-2.619z"></path>
<path fill="#7b4a1c" style="fill: var(--color15, #7b4a1c)" d="M22.19 9.277c0-3.807-2.446-6.277-6.19-6.277s-6.19 2.377-6.19 6.277c0.229 1.578 0.588 2.99 1.076 4.34l-0.048-0.152c2.171 0.474 3.372 2.070 5.181 2.070 1.81 0 2.486-1.55 5.143-2.070 0.533-1.345 0.88-2.753 1.029-4.188z"></path>
<path fill="#458ede" style="fill: var(--color16, #458ede)" d="M6 24.673v-3.25c0-3.25 9.99-5.423 9.99-5.423s10.010 2.173 10.010 5.423v3.25c0 4.327-3.343 4.327-10.010 4.327-6.665 0-9.99 0-9.99-4.327z"></path>
<path fill="#9ec3e9" style="fill: var(--color17, #9ec3e9)" d="M16 28.071c-5.838 0-9.048 0-9.048-3.342v-3.343c0-2.201 9.048-4.457 9.048-4.457s9.048 2.256 9.048 4.457v3.343c0 3.342-3.22 3.342-9.048 3.342z"></path>
<path fill="#66a5e2" style="fill: var(--color18, #66a5e2)" d="M7.905 24.822v-2.322c0-1.16 1.152-2.321 8.095-4.643 6.943 2.322 8.095 3.482 8.095 4.643v2.322c0 2.32-2.314 2.32-8.095 2.32-5.78 0-8.095 0-8.095-2.32z"></path>
<path fill="#fff" style="fill: var(--color19, #fff)" d="M20.286 18.786l-4.286 4.643-4.286-4.643v-0.929h8.572v0.929z"></path>
<path fill="#d9bd85" style="fill: var(--color20, #d9bd85)" d="M19.095 18.693c-0.893 0.495-1.958 0.786-3.091 0.786-0.001 0-0.003 0-0.004 0h0c-0.001 0-0.003 0-0.004 0-1.133 0-2.198-0.291-3.124-0.803l0.033 0.017c0.335-1.728 0.335-3.5 0-5.228h6.133c-0.135 0.74-0.212 1.591-0.212 2.46 0 0.979 0.098 1.936 0.285 2.86l-0.016-0.092z"></path>
<path fill="#e2e2e2" opacity="0.5" style="fill: var(--color21, #e2e2e2)" d="M12.98 14.069c0.070 0.542 0.102 1.088 0.096 1.634 0.953 1.94 3.438 2.656 5.562 2.396 0.105 0 0.352 0.603 0.457 0.594-0.135-0.698-0.212-1.501-0.212-2.322s0.077-1.623 0.225-2.401l-0.013 0.080-6.114 0.019z"></path>
<path fill="#ffe09c" style="fill: var(--color22, #ffe09c)" d="M20.381 10.057c0 3.63-1 6.5-4.372 6.5-3.37 0-4.361-3.101-4.361-6.5-0.002-0.055-0.004-0.119-0.004-0.183 0-1.169 0.457-2.232 1.202-3.019l-0.002 0.002c0.801-0.846 1.915-1.389 3.155-1.443l0.010-0c1.252 0.053 2.367 0.596 3.168 1.44l0.002 0.002c0.746 0.787 1.205 1.853 1.205 3.026 0 0.061-0.001 0.122-0.004 0.183l0-0.009z"></path>
<path fill="#735343" style="fill: var(--color23, #735343)" d="M16 4.050c3.438 0 5.124 2.228 5.152 5.292 0.003 0.081 0.005 0.177 0.005 0.272 0 1.444-0.451 2.782-1.22 3.882l0.015-0.022c0.134-0.371 0.696-3.621-1.152-4.215-1.848-0.595-3.448 2.256-6.857 1.235-0.061 0.36-0.096 0.774-0.096 1.196 0 0.64 0.080 1.262 0.231 1.855l-0.011-0.052c-0.724-1.156-1.175-2.549-1.229-4.043l-0-0.015c0.162-3.064 1.724-5.386 5.162-5.386z"></path>
<path fill="#ff961f" opacity="0.3" style="fill: var(--color28, #ff961f)" d="M11.18 9.5c0.041 0.63 0.153 1.252 0.334 1.857 0.002-0.333 0.034-0.666 0.096-0.993l0.066-0.39 0.362 0.111c0.438 0.133 0.941 0.21 1.463 0.21 0.252 0 0.499-0.018 0.741-0.053l-0.028 0.003c0.769-0.109 1.459-0.372 2.064-0.758l-0.021 0.012c1.972-1.012 3.333-4.392 1.22-4.903-0.429-0.106-0.922-0.167-1.428-0.167-0.017 0-0.034 0-0.051 0l0.003-0c-3.952-0.019-4.714 3.139-4.82 5.070z"></path>
</symbol>
<symbol id="icon-minus" viewBox="0 0 32 32">
<path fill="#b93333" style="fill: var(--color6, #b93333)" d="M22 13.5h-12c-0.552 0-1 0.448-1 1v0 3c0 0.552 0.448 1 1 1v0h12c0.552 0 1-0.448 1-1v0-3c0-0.552-0.448-1-1-1v0z"></path>
<path fill="#f75e5e" style="fill: var(--color7, #f75e5e)" d="M20 15h-8c-0.552 0-1 0.448-1 1s0.448 1 1 1v0h8c0.552 0 1-0.448 1-1s-0.448-1-1-1v0z"></path>
</symbol>
<symbol id="icon-plus" viewBox="0 0 32 32">
<path fill="#338737" style="fill: var(--color29, #338737)" d="M17.5 9h-3c-0.552 0-1 0.448-1 1v0 3.5h-3.5c-0.552 0-1 0.448-1 1v0 3c0 0.552 0.448 1 1 1v0h3.5v3.5c0 0.552 0.448 1 1 1v0h3c0.552 0 1-0.448 1-1v0-3.5h3.5c0.552 0 1-0.448 1-1v0-3c0-0.552-0.448-1-1-1v0h-3.5v-3.5c0-0.552-0.448-1-1-1v0z"></path>
<path fill="#41e752" style="fill: var(--color30, #41e752)" d="M17 15v-4c0-0.552-0.448-1-1-1s-1 0.448-1 1v0 4h-4c-0.552 0-1 0.448-1 1s0.448 1 1 1v0h4v4c0 0.552 0.448 1 1 1s1-0.448 1-1v0-4h4c0.552 0 1-0.448 1-1s-0.448-1-1-1v0h-4z"></path>
</symbol>
<symbol id="icon-poll" viewBox="0 0 32 32">
<path fill="#fff" style="fill: var(--color14, #fff)" d="M31 1h-30v30h30v-30z"></path>
<path fill="#367831" style="fill: var(--color30, #367831)" d="M12 2h-10v2.025h9.95v3.975h-9.95v2h10c1.105 0 2-0.895 2-2v0-4c0-1.105-0.895-2-2-2v0z"></path>
<path fill="#b2d68d" style="fill: var(--color32, #b2d68d)" d="M12 8v-4h-10v4h10z"></path>
<path fill="#c16900" style="fill: var(--color33, #c16900)" d="M26 12h-24v2.025h24v3.975h-24v2h24c1.105 0 2-0.895 2-2v0-4c0-1.105-0.895-2-2-2v0z"></path>
<path fill="#ffd678" style="fill: var(--color10, #ffd678)" d="M26 18v-4h-24v4h24z"></path>
<path fill="#116fa0" style="fill: var(--color34, #116fa0)" d="M20 22h-18v2.025h18v3.975h-18v2h18c1.105 0 2-0.895 2-2v0-4c0-1.105-0.895-2-2-2v0z"></path>
<path fill="#9bd1f4" style="fill: var(--color35, #9bd1f4)" d="M20 28v-4h-18v4h18z"></path>
</symbol>
<symbol id="icon-post_del" viewBox="0 0 32 32">
<path fill="#e03333" style="fill: var(--color8, #e03333)" d="M9 16c0 3.866 3.134 7 7 7s7-3.134 7-7v0c0-3.866-3.134-7-7-7s-7 3.134-7 7v0z"></path>
<path fill="#fff" style="fill: var(--color14, #fff)" d="M19.799 19.402l-5.997-8.003s3.8-1.598 6.2 1.603c2.398 3.2-0.203 6.4-0.203 6.4zM18.198 20.601l-5.997-8.003s-2.6 3.2-0.202 6.4c2.398 3.201 6.199 1.603 6.199 1.603z"></path>
</symbol>
<symbol id="icon-post_edit" viewBox="0 0 32 32">
<path fill="#4f8f00" style="fill: var(--color36, #4f8f00)" d="M16.47 22.035l6.356-8.973c0.319-0.437 0.511-0.985 0.511-1.578 0-1.487-1.205-2.692-2.692-2.692-0.925 0-1.742 0.467-2.226 1.178l-0.006 0.009-4.649 6.75-1.309-3.442c-0.554-1.457-2.447-1.822-3.503-0.677-0.345 0.373-0.556 0.873-0.556 1.423 0 0.32 0.072 0.623 0.2 0.895l-0.005-0.013 3.079 6.65c0.293 0.624 0.882 1.065 1.581 1.147l0.009 0.001 1.353 0.154c0.067 0.008 0.145 0.013 0.224 0.013 0.671 0 1.266-0.331 1.628-0.839l0.004-0.006z"></path>
<path fill="#99d000" style="fill: var(--color31, #99d000)" d="M15.388 21.19l6.412-8.995c0.166-0.216 0.267-0.491 0.267-0.789 0-0.718-0.582-1.3-1.3-1.3-0.458 0-0.86 0.236-1.092 0.594l-0.003 0.005-6.005 8.73-2.294-5.726c-0.143-0.33-0.466-0.558-0.842-0.558-0.505 0-0.915 0.409-0.915 0.915 0 0.129 0.027 0.252 0.075 0.363l-0.002-0.006 2.908 6.49c0.259 0.568 0.822 0.956 1.475 0.956 0.541 0 1.019-0.265 1.313-0.673l0.003-0.005z"></path>
</symbol>
<symbol id="icon-s_m" viewBox="0 0 32 32">
<path fill="#858a8f" style="fill: var(--color37, #858a8f)" d="M29.867 9.6v17.38c0 1.005-0.815 1.82-1.82 1.82v0h-26.227c-1.005-0.001-1.819-0.815-1.82-1.82v-25.068c0.001-1.056 0.857-1.912 1.913-1.912 0 0 0 0 0 0h18.353l3.2 1.067 5.334 5.333 1.067 3.2z"></path>
<path fill="#e2e6ed" style="fill: var(--color38, #e2e6ed)" d="M26.433 8.533c0.155 0 0.31 0.015 0.46 0.060 0.548 0.165 1.907 0.711 1.907 2.074v17.066h-27.733v-26.666h18.133s2.133 0.595 2.133 2.133v3.513c0.001 1.005 0.815 1.819 1.82 1.82h3.28z"></path>
<path fill="#cbcbcb" style="fill: var(--color39, #cbcbcb)" d="M23.467 1.067l5.333 5.333v2.133l-0.35-0.35c-0.443-0.442-1.055-0.716-1.73-0.716-0 0-0 0-0.001 0h-4.319v-6.4h1.067z"></path>
<path fill="#fff" opacity="0.92" style="fill: var(--color14, #fff)" d="M19.2 1.067h-18.133v1.066h18.133v-1.066z"></path>
<path fill="#fff" opacity="0.92" style="fill: var(--color14, #fff)" d="M2.133 2.133h-1.066v25.6h1.066v-25.6z"></path>
<path fill="#b9b9b9" opacity="0.92" style="fill: var(--color40, #b9b9b9)" d="M28.8 10.667h-1.067v17.066h1.067v-17.066z"></path>
<path fill="#fff" opacity="0.92" style="fill: var(--color14, #fff)" d="M26.667 8.533h-5.334v1.067h5.334v-1.067zM23.467 7.467h-1.067s0.022-4.814 0-5.334c-0.022-0.52-1.067-1.066-1.067-1.066h0.783c0.746 0 1.35 0.605 1.35 1.35v5.050z"></path>
<path fill="#999b9e" opacity="0.84" style="fill: var(--color41, #999b9e)" d="M21.333 3.2h-18.133v3.2h18.133v-3.2z"></path>
<path fill="#989898" opacity="0.99" style="fill: var(--color42, #989898)" d="M6.373 15.969h-2.11v1.098h2.11v-1.098zM10.68 15.969h-3.209v1.098h3.209v-1.098zM13.889 15.969h-2.196v1.098h2.196v-1.098zM6.373 22.387h-2.11v1.097h2.11v-1.097zM10.68 22.387h-3.209v1.097h3.209v-1.097zM13.889 22.387h-2.196v1.097h2.196v-1.097zM7.471 18.164h-3.209v1.014h3.21v-1.014zM13.889 18.164h-5.32v1.014h5.32v-1.014zM8.569 20.276h-4.307v1.097h4.308v-1.097zM13.889 20.276h-4.307v1.097h4.307v-1.097zM8.569 24.498h-4.307v1.098h4.308v-1.098zM13.889 24.498h-4.307v1.098h4.307v-1.098zM18.196 8.538h-2.196v1.098h2.196v-1.098zM20.267 8.533h-1.067v1.067h1.067v-1.067zM19.209 10.649h-3.209v1.098h3.209v-1.098zM25.627 10.649h-5.32v1.098h5.32v-1.098zM20.307 12.76h-4.307v1.098h4.307v-1.098zM25.627 12.76h-4.307v1.098h4.307v-1.098zM19.209 23.484h-3.209v1.014h3.209v-1.014zM21.333 23.467h-1.066v1.066h1.066v-1.066zM20.307 25.596h-4.307v1.097h4.307v-1.097zM25.627 25.596h-4.307v1.097h4.307v-1.097z"></path>
<path fill="#fff" opacity="0.92" style="fill: var(--color14, #fff)" d="M21.333 3.2h-1.066v6.4h1.066v-6.4z"></path>
<path fill="#999b9e" opacity="0.84" style="fill: var(--color41, #999b9e)" d="M25.6 14.933h-9.6v7.467h9.6v-7.467zM13.867 8.533h-9.6v6.4h9.6v-6.4z"></path>
<path fill="#e0e0e0" opacity="0.6" style="fill: var(--color43, #e0e0e0)" d="M24.533 19.2l-2.133-1.067-3.2 1.067-2.133 2.133v-5.333h7.466v3.2z"></path>
<path fill="#dbdbdb" opacity="0.6" style="fill: var(--color44, #dbdbdb)" d="M11.733 12.8c-1.172-0.010-2.118-0.962-2.118-2.135 0-0.392 0.106-0.759 0.29-1.075l-0.005 0.010h-4.567v4.267h7.467v-1.367c-0.305 0.184-0.673 0.295-1.066 0.299h-0.001z"></path>
<path fill="#c44030" style="fill: var(--color45, #c44030)" d="M24.5 32c4.142 0 7.5-3.358 7.5-7.5s-3.358-7.5-7.5-7.5v0c-4.142 0-7.5 3.358-7.5 7.5s3.358 7.5 7.5 7.5v0z"></path>
<path fill="#e34529" style="fill: var(--color46, #e34529)" d="M24.5 31c3.59 0 6.5-2.91 6.5-6.5s-2.91-6.5-6.5-6.5v0c-3.59 0-6.5 2.91-6.5 6.5s2.91 6.5 6.5 6.5v0z"></path>
<path fill="#fff" style="fill: var(--color14, #fff)" d="M29 23h-9v3h9v-3z"></path>
</symbol>
<symbol id="icon-s_p" viewBox="0 0 32 32">
<path fill="#858a8f" style="fill: var(--color37, #858a8f)" d="M29.867 9.6v17.38c0 1.005-0.815 1.82-1.82 1.82v0h-26.227c-1.005-0.001-1.819-0.815-1.82-1.82v-25.068c0.001-1.056 0.857-1.912 1.913-1.912 0 0 0 0 0 0h18.353l3.2 1.067 5.334 5.333 1.067 3.2z"></path>
<path fill="#e2e6ed" style="fill: var(--color38, #e2e6ed)" d="M26.433 8.533c0.155 0 0.31 0.015 0.46 0.060 0.548 0.165 1.907 0.711 1.907 2.074v17.066h-27.733v-26.666h18.133s2.133 0.595 2.133 2.133v3.513c0.001 1.005 0.815 1.819 1.82 1.82h3.28z"></path>
<path fill="#cbcbcb" style="fill: var(--color39, #cbcbcb)" d="M23.467 1.067l5.333 5.333v2.133l-0.35-0.35c-0.443-0.442-1.055-0.716-1.73-0.716-0 0-0 0-0.001 0h-4.319v-6.4h1.067z"></path>
<path fill="#fff" opacity="0.92" style="fill: var(--color14, #fff)" d="M19.2 1.067h-18.133v1.066h18.133v-1.066z"></path>
<path fill="#fff" opacity="0.92" style="fill: var(--color14, #fff)" d="M2.133 2.133h-1.066v25.6h1.066v-25.6z"></path>
<path fill="#b9b9b9" opacity="0.92" style="fill: var(--color40, #b9b9b9)" d="M28.8 10.667h-1.067v17.066h1.067v-17.066z"></path>
<path fill="#fff" opacity="0.92" style="fill: var(--color14, #fff)" d="M26.667 8.533h-5.334v1.067h5.334v-1.067zM23.467 7.467h-1.067s0.022-4.814 0-5.334c-0.022-0.52-1.067-1.066-1.067-1.066h0.783c0.746 0 1.35 0.605 1.35 1.35v5.050z"></path>
<path fill="#999b9e" opacity="0.84" style="fill: var(--color41, #999b9e)" d="M21.333 3.2h-18.133v3.2h18.133v-3.2z"></path>
<path fill="#989898" opacity="0.99" style="fill: var(--color42, #989898)" d="M6.373 15.969h-2.11v1.098h2.11v-1.098zM10.68 15.969h-3.209v1.098h3.209v-1.098zM13.889 15.969h-2.196v1.098h2.196v-1.098zM6.373 22.387h-2.11v1.097h2.11v-1.097zM10.68 22.387h-3.209v1.097h3.209v-1.097zM13.889 22.387h-2.196v1.097h2.196v-1.097zM7.471 18.164h-3.209v1.014h3.21v-1.014zM13.889 18.164h-5.32v1.014h5.32v-1.014zM8.569 20.276h-4.307v1.097h4.308v-1.097zM13.889 20.276h-4.307v1.097h4.307v-1.097zM8.569 24.498h-4.307v1.098h4.308v-1.098zM13.889 24.498h-4.307v1.098h4.307v-1.098zM18.196 8.538h-2.196v1.098h2.196v-1.098zM20.267 8.533h-1.067v1.067h1.067v-1.067zM19.209 10.649h-3.209v1.098h3.209v-1.098zM25.627 10.649h-5.32v1.098h5.32v-1.098zM20.307 12.76h-4.307v1.098h4.307v-1.098zM25.627 12.76h-4.307v1.098h4.307v-1.098zM19.209 23.484h-3.209v1.014h3.209v-1.014zM21.333 23.467h-1.066v1.066h1.066v-1.066zM20.307 25.596h-4.307v1.097h4.307v-1.097zM25.627 25.596h-4.307v1.097h4.307v-1.097z"></path>
<path fill="#fff" opacity="0.92" style="fill: var(--color14, #fff)" d="M21.333 3.2h-1.066v6.4h1.066v-6.4z"></path>
<path fill="#999b9e" opacity="0.84" style="fill: var(--color41, #999b9e)" d="M25.6 14.933h-9.6v7.467h9.6v-7.467zM13.867 8.533h-9.6v6.4h9.6v-6.4z"></path>
<path fill="#e0e0e0" opacity="0.6" style="fill: var(--color43, #e0e0e0)" d="M24.533 19.2l-2.133-1.067-3.2 1.067-2.133 2.133v-5.333h7.466v3.2z"></path>
<path fill="#dbdbdb" opacity="0.6" style="fill: var(--color44, #dbdbdb)" d="M11.733 12.8c-1.172-0.010-2.118-0.962-2.118-2.135 0-0.392 0.106-0.759 0.29-1.075l-0.005 0.010h-4.567v4.267h7.467v-1.367c-0.305 0.184-0.673 0.295-1.066 0.299h-0.001z"></path>
<path fill="#4f8f00" style="fill: var(--color36, #4f8f00)" d="M24.533 32c4.124 0 7.467-3.343 7.467-7.467s-3.343-7.467-7.467-7.467v0c-4.124 0-7.467 3.343-7.467 7.467s3.343 7.467 7.467 7.467v0z"></path>
<path fill="#8fcc00" style="fill: var(--color47, #8fcc00)" d="M24.533 30.933c3.535 0 6.4-2.865 6.4-6.4s-2.865-6.4-6.4-6.4v0c-3.535 0-6.4 2.865-6.4 6.4s2.865 6.4 6.4 6.4v0z"></path>
<path fill="#fff" style="fill: var(--color14, #fff)" d="M25.6 20.267h-2.133v8.533h2.133v-8.533z"></path>
<path fill="#fff" style="fill: var(--color14, #fff)" d="M28.8 23.467h-8.533v2.133h8.533v-2.133z"></path>
</symbol>
<symbol id="icon-up" viewBox="0 0 32 32">
<path fill="#488ddd" style="fill: var(--color31, #488ddd)" d="M24.005 22h-16.014c-0 0-0.001 0-0.001 0-0.515 0-0.933-0.418-0.933-0.933 0-0.228 0.082-0.436 0.217-0.598l-0.001 0.001 8.712-10.47 8.737 10.469c0.135 0.161 0.217 0.37 0.217 0.598 0 0.515-0.418 0.933-0.933 0.933-0 0-0.001 0-0.001 0h0z"></path>
<path fill="#589fdb" style="fill: var(--color32, #589fdb)" d="M6.977 9.515l0.008 1c0.008 1.098 0.901 1.985 2 1.985 0 0 0 0 0 0h13.977c1.105 0 2-0.895 2-2v0-1c0-1.105-0.895-2-2-2v0h-13.985c-0 0-0 0-0 0-1.105 0-2 0.895-2 2 0 0.005 0 0.011 0 0.016v-0.001z"></path>
<path fill="#98e5ff" style="fill: var(--color33, #98e5ff)" d="M22.983 9h-13.983c-0.552 0-1 0.448-1 1s0.448 1 1 1v0h13.983c0.552 0 1-0.448 1-1s-0.448-1-1-1v0z"></path>
<path fill="#95e3ff" style="fill: var(--color34, #95e3ff)" d="M22 20h-12l5.971-7 6.029 7z"></path>
<path fill="#31c2ff" style="fill: var(--color35, #31c2ff)" d="M20 20h-8l4-4 4 4z"></path>
</symbol>
</defs>
</svg>
